<svg width="520" height="320" viewBox="0 0 520 320" fill="none" xmlns="http://www.w3.org/2000/svg">
  <!-- Background card -->
  <rect x="0" y="0" width="520" height="320" rx="16" fill="#f8f9fc"/>

  <!-- Top accent bar -->
  <rect x="0" y="0" width="520" height="4" rx="2" fill="url(#topgrad)"/>

  <!-- Main dashboard card -->
  <rect x="24" y="24" width="284" height="192" rx="12" fill="white" stroke="#e4e7ef" stroke-width="1"/>

  <!-- Card header -->
  <rect x="24" y="24" width="284" height="44" rx="12" fill="#f8f9fc"/>
  <rect x="24" y="56" width="284" height="12" fill="#f8f9fc"/>
  <circle cx="48" cy="46" r="10" fill="#eef2ff"/>
  <rect x="66" y="40" width="72" height="7" rx="3.5" fill="#e4e7ef"/>
  <rect x="66" y="50" width="48" height="5" rx="2.5" fill="#f1f3f9"/>
  <rect x="254" y="39" width="38" height="14" rx="7" fill="#6366f1" opacity=".15"/>
  <rect x="262" y="43" width="22" height="6" rx="3" fill="#6366f1" opacity=".5"/>

  <!-- Stats row -->
  <rect x="38" y="82" width="68" height="52" rx="8" fill="#f8f9fc" stroke="#e4e7ef" stroke-width="1"/>
  <rect x="46" y="94" width="32" height="10" rx="5" fill="#6366f1" opacity=".25"/>
  <rect x="46" y="108" width="48" height="6" rx="3" fill="#e4e7ef"/>
  <rect x="46" y="118" width="36" height="5" rx="2.5" fill="#f1f3f9"/>

  <rect x="116" y="82" width="68" height="52" rx="8" fill="#f8f9fc" stroke="#e4e7ef" stroke-width="1"/>
  <rect x="124" y="94" width="36" height="10" rx="5" fill="#8b5cf6" opacity=".25"/>
  <rect x="124" y="108" width="48" height="6" rx="3" fill="#e4e7ef"/>
  <rect x="124" y="118" width="36" height="5" rx="2.5" fill="#f1f3f9"/>

  <rect x="194" y="82" width="100" height="52" rx="8" fill="#eef2ff" stroke="#c7d2fe" stroke-width="1"/>
  <rect x="202" y="94" width="42" height="10" rx="5" fill="#6366f1" opacity=".40"/>
  <rect x="202" y="108" width="64" height="6" rx="3" fill="#c7d2fe"/>
  <rect x="202" y="118" width="50" height="5" rx="2.5" fill="#ddd6fe" opacity=".6"/>

  <!-- Chart area -->
  <rect x="38" y="148" width="256" height="52" rx="8" fill="#f8f9fc"/>
  <!-- Chart bars -->
  <rect x="50" y="172" width="12" height="20" rx="3" fill="#6366f1" opacity=".25"/>
  <rect x="68" y="162" width="12" height="30" rx="3" fill="#6366f1" opacity=".40"/>
  <rect x="86" y="168" width="12" height="24" rx="3" fill="#6366f1" opacity=".30"/>
  <rect x="104" y="155" width="12" height="37" rx="3" fill="#6366f1" opacity=".55"/>
  <rect x="122" y="160" width="12" height="32" rx="3" fill="#6366f1" opacity=".45"/>
  <rect x="140" y="152" width="12" height="40" rx="3" fill="#6366f1" opacity=".65"/>
  <rect x="158" y="157" width="12" height="35" rx="3" fill="#6366f1" opacity=".50"/>
  <rect x="176" y="149" width="12" height="43" rx="3" fill="#6366f1" opacity=".80"/>
  <rect x="194" y="153" width="12" height="39" rx="3" fill="#8b5cf6" opacity=".65"/>
  <rect x="212" y="148" width="12" height="44" rx="3" fill="#6366f1"/>
  <rect x="230" y="151" width="12" height="41" rx="3" fill="#8b5cf6" opacity=".75"/>
  <rect x="248" y="147" width="12" height="45" rx="3" fill="#6366f1" opacity=".90"/>
  <!-- Chart line -->
  <polyline points="56,172 74,162 92,168 110,155 128,160 146,152 164,157 182,149 200,153 218,148 236,151 254,147" stroke="#6366f1" stroke-width="1.5" fill="none" stroke-linecap="round" stroke-linejoin="round" opacity=".4"/>

  <!-- Right panel - transaction list -->
  <rect x="324" y="24" width="172" height="272" rx="12" fill="white" stroke="#e4e7ef" stroke-width="1"/>
  <rect x="340" y="38" width="80" height="7" rx="3.5" fill="#e4e7ef"/>
  <rect x="340" y="49" width="56" height="5" rx="2.5" fill="#f1f3f9"/>

  <!-- Transaction items -->
  <rect x="336" y="64" width="144" height="38" rx="8" fill="#f8f9fc"/>
  <circle cx="354" cy="83" r="9" fill="#eef2ff"/>
  <rect x="370" y="76" width="52" height="6" rx="3" fill="#e4e7ef"/>
  <rect x="370" y="85" width="36" height="5" rx="2.5" fill="#f1f3f9"/>
  <rect x="440" y="77" width="32" height="6" rx="3" fill="#10b981" opacity=".35"/>
  <rect x="440" y="86" width="28" height="5" rx="2.5" fill="#f1f3f9"/>

  <rect x="336" y="110" width="144" height="38" rx="8" fill="#f8f9fc"/>
  <circle cx="354" cy="129" r="9" fill="#ede9fe"/>
  <rect x="370" y="122" width="60" height="6" rx="3" fill="#e4e7ef"/>
  <rect x="370" y="131" width="40" height="5" rx="2.5" fill="#f1f3f9"/>
  <rect x="440" y="123" width="32" height="6" rx="3" fill="#10b981" opacity=".35"/>
  <rect x="440" y="132" width="28" height="5" rx="2.5" fill="#f1f3f9"/>

  <rect x="336" y="156" width="144" height="38" rx="8" fill="#f8f9fc"/>
  <circle cx="354" cy="175" r="9" fill="#eef2ff"/>
  <rect x="370" y="168" width="48" height="6" rx="3" fill="#e4e7ef"/>
  <rect x="370" y="177" width="56" height="5" rx="2.5" fill="#f1f3f9"/>
  <rect x="440" y="169" width="32" height="6" rx="3" fill="#10b981" opacity=".35"/>
  <rect x="440" y="178" width="28" height="5" rx="2.5" fill="#f1f3f9"/>

  <rect x="336" y="202" width="144" height="38" rx="8" fill="#eef2ff" stroke="#c7d2fe" stroke-width="1"/>
  <circle cx="354" cy="221" r="9" fill="#c7d2fe"/>
  <rect x="370" y="214" width="64" height="6" rx="3" fill="#c7d2fe"/>
  <rect x="370" y="223" width="42" height="5" rx="2.5" fill="#ddd6fe" opacity=".7"/>
  <rect x="440" y="215" width="32" height="6" rx="3" fill="#6366f1" opacity=".50"/>
  <rect x="440" y="224" width="28" height="5" rx="2.5" fill="#c7d2fe"/>

  <!-- Bottom row -->
  <rect x="24" y="232" width="284" height="56" rx="12" fill="white" stroke="#e4e7ef" stroke-width="1"/>
  <rect x="38" y="246" width="96" height="7" rx="3.5" fill="#e4e7ef"/>
  <rect x="38" y="257" width="64" height="5" rx="2.5" fill="#f1f3f9"/>
  <rect x="38" y="266" width="80" height="5" rx="2.5" fill="#f1f3f9"/>
  <!-- Mini sparkline -->
  <polyline points="200,268 210,262 220,265 230,258 240,261 250,256 260,259 270,253 280,256 290,252" stroke="#6366f1" stroke-width="1.5" fill="none" stroke-linecap="round" stroke-linejoin="round"/>

  <!-- Floating badge -->
  <rect x="156" y="248" width="80" height="28" rx="14" fill="#6366f1" filter="url(#glow)"/>
  <rect x="162" y="257" width="48" height="6" rx="3" fill="white" opacity=".85"/>
  <rect x="162" y="265" width="36" height="4" rx="2" fill="white" opacity=".50"/>

  <!-- Badge pill -->
  <rect x="336" y="252" width="144" height="28" rx="14" fill="#f8f9fc" stroke="#e4e7ef" stroke-width="1"/>
  <circle cx="352" cy="266" r="6" fill="#10b981" opacity=".30"/>
  <circle cx="352" cy="266" r="3" fill="#10b981"/>
  <rect x="364" y="262" width="56" height="5" rx="2.5" fill="#e4e7ef"/>
  <rect x="364" y="270" width="40" height="4" rx="2" fill="#f1f3f9"/>

  <defs>
    <linearGradient id="topgrad" x1="0" y1="0" x2="520" y2="0" gradientUnits="userSpaceOnUse">
      <stop offset="0%" stop-color="#6366f1"/>
      <stop offset="100%" stop-color="#8b5cf6"/>
    </linearGradient>
    <filter id="glow" x="-20%" y="-20%" width="140%" height="140%">
      <feGaussianBlur stdDeviation="3" result="coloredBlur"/>
      <feMerge>
        <feMergeNode in="coloredBlur"/>
        <feMergeNode in="SourceGraphic"/>
      </feMerge>
    </filter>
  </defs>
</svg>
